<svg width="431" height="283" xmlns="http://www.w3.org/2000/svg" xmlns:xlink="http://www.w3.org/1999/xlink" overflow="hidden"><defs><filter id="fx0" x="-10%" y="-10%" width="120%" height="120%" filterUnits="userSpaceOnUse" primitiveUnits="userSpaceOnUse"><feComponentTransfer color-interpolation-filters="sRGB"><feFuncR type="discrete" tableValues="0.615686 0.615686"/><feFuncG type="discrete" tableValues="0.764706 0.764706"/><feFuncB type="discrete" tableValues="0.901961 0.901961"/><feFuncA type="linear" slope="1" intercept="0"/></feComponentTransfer><feGaussianBlur stdDeviation="0.485505 0.485505"/></filter><clipPath id="clip1"><rect x="2" y="1" width="402" height="119"/></clipPath></defs><g transform="translate(-449 -399)"><g clip-path="url(#clip1)" filter="url(#fx0)" transform="translate(469 480)"><g><path d="M371.146 21.4671C371.375 22.7894 369.099 26.3528 364.318 32.1575 355.868 42.4896 349.615 51.6188 345.558 59.5452L344.62 59.8001 354.876 60.0257C363.891 60.0257 370.23 59.8083 373.892 59.3734 371.978 45.8786 371.021 34.3509 371.021 24.7903ZM53.9246 4.2132C59.146 4.2132 63.4778 5.06264 66.9202 6.76154 70.3626 8.46043 72.0838 10.7851 72.0838 13.7357 72.0838 16.39 70.4995 19.6048 67.3308 23.3802 63.3536 16.5189 57.6157 13.0882 50.117 13.0882 45.4738 13.0882 41.5782 14.5104 38.4305 17.3548 35.2827 20.1992 33.7088 23.7116 33.7088 27.8919 33.7088 30.6784 34.2148 32.7886 35.2268 34.2225 36.2389 35.6564 39.6372 39.0205 45.4217 44.3148L48.8094 49.0687C60.5756 58.9248 66.4588 67.736 66.4588 75.5023 66.4588 84.5413 62.8893 92.0237 55.7503 97.9495 48.6113 103.875 39.6684 106.838 28.9217 106.838 21.6567 106.838 15.6071 105.104 10.7727 101.635 5.93843 98.1655 3.52128 93.721 3.52128 88.3011 3.52128 84.4886 7.12544 80.3118 14.3338 75.7708 14.3338 82.9433 16.0387 88.2998 19.4485 91.8401 22.8584 95.3805 27.603 97.1507 33.6824 97.1507 39.1108 97.1507 43.7952 95.5452 47.7356 92.3343 51.6761 89.1234 53.6463 85.4072 53.6463 81.1859 53.6463 76.6123 49.1424 70.1178 40.1346 61.7025L33.3973 55.4534C24.5216 47.206 20.0838 39.528 20.0838 32.4193 20.0838 24.1868 23.2807 17.4277 29.6746 12.1419 36.0685 6.8561 44.1518 4.2132 53.9246 4.2132ZM388.36 3.8382C387.176 12.0791 386.584 19.3359 386.584 25.6087 386.584 42.332 388.51 59.2493 392.363 76.3607 394.416 85.5176 397.678 91.6458 402.146 94.7454 397.816 99.5156 394.095 101.901 390.984 101.901 383.816 101.901 378.485 90.8382 374.991 68.7132 369.038 69.4215 362.574 69.7757 355.599 69.7757L339.691 69.4808 338.246 71.8099C333.596 80.7767 331.271 87.7956 331.271 92.8665 331.271 94.153 331.863 95.8708 333.047 98.0198 331.745 98.6351 329.508 99.5276 326.336 100.698 324.099 101.5 322.176 101.901 320.566 101.901 316.87 101.901 315.021 100.117 315.021 96.5482 315.021 90.6374 318.62 81.7685 325.816 69.9417L327.543 68.7132 325.665 68.7132C319.195 68.7132 313.585 69.7418 308.834 71.7991 310.952 63.2418 316.268 58.9632 324.78 58.9632L332.53 59.1429 333.803 57.2571C340.22 47.6146 350.046 34.6188 363.284 18.2698 367.822 12.6494 371.262 9.12433 373.602 7.69464 375.943 6.26495 380.862 4.97947 388.36 3.8382ZM246.084 3.2757C243.314 9.17088 240.453 12.9153 237.501 14.5091 234.549 16.1028 230.089 16.8997 224.122 16.8997L218.754 16.8382 201.095 16.8382 194.045 51.0257 205.952 51.0257C214.007 51.0257 221.218 49.9827 227.584 47.8968 225.423 53.971 222.956 57.6985 220.182 59.0794 217.409 60.4603 212.176 61.1507 204.482 61.1507L192.335 61.1507 184.082 102.455C183.333 106.196 182.959 108.621 182.959 109.731 182.959 110.729 183.224 112.151 183.755 113.998 178.974 116.517 174.752 117.776 171.088 117.776 168.127 117.776 166.646 116.502 166.646 113.954 166.646 112.967 167.062 110.358 167.892 106.129L177.127 61.1705 174.683 61.3152C171.736 61.6442 168.28 62.4666 164.315 63.7825 166.463 58.0963 168.402 54.5486 170.132 53.1395 171.861 51.7303 174.55 51.0257 178.196 51.0257L178.825 51.0257 185.959 16.8382 185.86 16.8382C177.311 16.8382 169.802 19.2718 163.334 24.139 165.026 16.3128 167.998 11.2275 172.248 8.88312 175.217 7.26984 184.036 6.4632 198.705 6.4632L214.816 6.4632C226.748 6.4632 237.17 5.4007 246.084 3.2757ZM319.646 3.0257C316.166 9.62661 313.064 13.5268 310.342 14.7264 307.62 15.9259 301.979 16.5257 293.419 16.5257L274.718 16.5257 268.891 44.1507 280.237 44.1507C288.929 44.1507 296.42 43.0306 302.709 40.7903 299.709 47.4446 297.022 51.3558 294.649 52.5237 292.276 53.6917 286.983 54.2757 278.768 54.2757L267.182 54.2757 264.254 69.0296C262.974 75.43 262.334 79.9827 262.334 82.6878 262.334 87.2881 267.158 89.5882 276.805 89.5882 287.076 89.5882 296.711 87.7291 305.709 84.011 303.711 91.6217 300.37 96.2165 295.683 97.7952 293.02 98.6845 288.489 99.5911 282.091 100.515 275.693 101.439 270.719 101.901 267.169 101.901 252.987 101.901 245.896 97.0504 245.896 87.3499 245.896 84.8909 246.558 80.2568 247.881 73.4476L251.97 54.2942 249.269 54.4442C246.139 54.7812 242.723 55.6238 239.021 56.972 241.414 51.2135 243.434 47.637 245.083 46.2425 246.731 44.848 249.281 44.1507 252.733 44.1507L253.732 44.1507 259.521 16.5257 258.993 16.5257C251.739 16.5257 244.311 18.929 236.709 23.7357 238.875 15.8034 241.894 10.8131 245.765 8.76495 248.745 7.23045 257.497 6.4632 272.02 6.4632L290.276 6.4632C301.696 6.4632 311.486 5.31736 319.646 3.0257ZM161.646 3.0257C158.166 9.62661 155.064 13.5268 152.342 14.7264 149.62 15.9259 143.979 16.5257 135.419 16.5257L116.718 16.5257 110.891 44.1507 122.237 44.1507C130.929 44.1507 138.42 43.0306 144.709 40.7903 141.709 47.4446 139.022 51.3558 136.649 52.5237 134.276 53.6917 128.983 54.2757 120.768 54.2757L109.182 54.2757 106.254 69.0296C104.974 75.43 104.334 79.9827 104.334 82.6878 104.334 87.2881 109.158 89.5882 118.805 89.5882 129.076 89.5882 138.711 87.7291 147.709 84.011 145.711 91.6217 142.37 96.2165 137.683 97.7952 135.02 98.6845 130.489 99.5911 124.091 100.515 117.693 101.439 112.719 101.901 109.169 101.901 94.9871 101.901 87.8963 97.0504 87.8963 87.3499 87.8963 84.8909 88.5577 80.2568 89.8806 73.4476L93.9705 54.2942 91.2691 54.4442C88.1394 54.7812 84.7234 55.6238 81.0213 56.972 83.4139 51.2135 85.4344 47.637 87.0828 46.2425 88.7312 44.848 91.2814 44.1507 94.7332 44.1507L95.7322 44.1507 101.521 16.5257 100.993 16.5257C93.7391 16.5257 86.311 18.929 78.7088 23.7357 80.8748 15.8034 83.8937 10.8131 87.7654 8.76495 90.7452 7.23045 99.4969 6.4632 114.02 6.4632L132.276 6.4632C143.696 6.4632 153.486 5.31736 161.646 3.0257Z" stroke="#203864" stroke-linejoin="round" stroke-miterlimit="10" fill="#FFFFFF" fill-rule="evenodd"/></g></g><path d="M836.982 498.303C837.21 499.625 834.934 503.188 830.154 508.993 821.704 519.325 815.451 528.454 811.394 536.381L810.456 536.636 820.711 536.861C829.726 536.861 836.065 536.644 839.728 536.209 837.814 522.714 836.857 511.187 836.857 501.626ZM519.76 481.049C524.982 481.049 529.313 481.898 532.756 483.597 536.198 485.296 537.919 487.621 537.919 490.571 537.919 493.226 536.335 496.44 533.166 500.216 529.189 493.354 523.451 489.924 515.953 489.924 511.309 489.924 507.414 491.346 504.266 494.19 501.118 497.035 499.544 500.547 499.544 504.728 499.544 507.514 500.05 509.624 501.062 511.058 502.074 512.492 505.473 515.856 511.257 521.15L514.645 525.904C526.411 535.76 532.294 544.572 532.294 552.338 532.294 561.377 528.725 568.859 521.586 574.785 514.447 580.711 505.504 583.674 494.757 583.674 487.492 583.674 481.443 581.939 476.608 578.47 471.774 575.001 469.357 570.557 469.357 565.137 469.357 561.324 472.961 557.147 480.169 552.606 480.169 559.779 481.874 565.135 485.284 568.676 488.694 572.216 493.439 573.986 499.518 573.986 504.946 573.986 509.631 572.381 513.571 569.17 517.512 565.959 519.482 562.243 519.482 558.021 519.482 553.448 514.978 546.953 505.97 538.538L499.233 532.289C490.357 524.042 485.919 516.364 485.919 509.255 485.919 501.022 489.116 494.263 495.51 488.978 501.904 483.692 509.987 481.049 519.76 481.049ZM854.196 480.674C853.011 488.915 852.419 496.172 852.419 502.444 852.419 519.168 854.346 536.085 858.199 553.196 860.252 562.353 863.513 568.481 867.982 571.581 863.652 576.351 859.931 578.736 856.82 578.736 849.652 578.736 844.321 567.674 840.827 545.549 834.873 546.257 828.41 546.611 821.435 546.611L805.527 546.316 804.081 548.646C799.432 557.612 797.107 564.631 797.107 569.702 797.107 570.989 797.699 572.706 798.882 574.855 797.581 575.471 795.344 576.363 792.171 577.533 789.935 578.335 788.012 578.736 786.402 578.736 782.705 578.736 780.857 576.952 780.857 573.384 780.857 567.473 784.455 558.604 791.652 546.777L793.378 545.549 791.5 545.549C785.031 545.549 779.421 546.577 774.669 548.635 776.788 540.077 782.103 535.799 790.616 535.799L798.366 535.979 799.639 534.093C806.055 524.45 815.882 511.454 829.12 495.105 833.658 489.485 837.097 485.96 839.438 484.53 841.778 483.101 846.698 481.815 854.196 480.674ZM711.919 480.111C709.15 486.007 706.289 489.751 703.337 491.345 700.385 492.938 695.925 493.735 689.957 493.735L684.589 493.674 666.93 493.674 659.88 527.861 671.788 527.861C679.843 527.861 687.053 526.818 693.419 524.732 691.259 530.807 688.791 534.534 686.018 535.915 683.245 537.296 678.011 537.986 670.318 537.986L658.17 537.986 649.917 579.291C649.169 583.031 648.794 585.456 648.794 586.566 648.794 587.564 649.06 588.987 649.59 590.834 644.81 593.352 640.587 594.611 636.923 594.611 633.962 594.611 632.482 593.338 632.482 590.79 632.482 589.802 632.897 587.194 633.728 582.965L642.962 538.006 640.519 538.151C637.572 538.48 634.116 539.302 630.151 540.618 632.299 534.932 634.237 531.384 635.967 529.975 637.697 528.566 640.385 527.861 644.032 527.861L644.661 527.861 651.794 493.674 651.696 493.674C643.146 493.674 635.637 496.107 629.169 500.975 630.862 493.148 633.833 488.063 638.083 485.719 641.052 484.105 649.871 483.299 664.54 483.299L680.652 483.299C692.583 483.299 703.006 482.236 711.919 480.111ZM785.482 479.861C782.001 486.462 778.9 490.362 776.178 491.562 773.455 492.762 767.814 493.361 759.254 493.361L740.553 493.361 734.727 520.986 746.073 520.986C754.765 520.986 762.255 519.866 768.544 517.626 765.544 524.28 762.858 528.191 760.485 529.359 758.112 530.527 752.818 531.111 744.604 531.111L733.018 531.111 730.089 545.865C728.809 552.266 728.169 556.818 728.169 559.523 728.169 564.124 732.993 566.424 742.641 566.424 752.912 566.424 762.546 564.565 771.544 560.847 769.547 568.457 766.205 573.052 761.519 574.631 758.856 575.52 754.325 576.427 747.927 577.351 741.529 578.274 736.554 578.736 733.004 578.736 718.823 578.736 711.732 573.886 711.732 564.186 711.732 561.727 712.393 557.092 713.716 550.283L717.806 531.13 715.105 531.28C711.975 531.617 708.559 532.459 704.857 533.808 707.249 528.049 709.27 524.473 710.918 523.078 712.567 521.684 715.117 520.986 718.569 520.986L719.568 520.986 725.357 493.361 724.829 493.361C717.575 493.361 710.147 495.765 702.544 500.571 704.71 492.639 707.729 487.649 711.601 485.601 714.581 484.066 723.332 483.299 737.856 483.299L756.112 483.299C767.532 483.299 777.322 482.153 785.482 479.861ZM627.482 479.861C624.001 486.462 620.9 490.362 618.178 491.562 615.455 492.762 609.814 493.361 601.254 493.361L582.553 493.361 576.727 520.986 588.073 520.986C596.765 520.986 604.255 519.866 610.544 517.626 607.544 524.28 604.858 528.191 602.485 529.359 600.112 530.527 594.818 531.111 586.604 531.111L575.018 531.111 572.089 545.865C570.809 552.266 570.169 556.818 570.169 559.523 570.169 564.124 574.993 566.424 584.641 566.424 594.912 566.424 604.546 564.565 613.544 560.847 611.547 568.457 608.205 573.052 603.519 574.631 600.856 575.52 596.325 576.427 589.927 577.351 583.529 578.274 578.554 578.736 575.004 578.736 560.823 578.736 553.732 573.886 553.732 564.186 553.732 561.727 554.393 557.092 555.716 550.283L559.806 531.13 557.105 531.28C553.975 531.617 550.559 532.459 546.857 533.808 549.249 528.049 551.27 524.473 552.918 523.078 554.567 521.684 557.117 520.986 560.569 520.986L561.568 520.986 567.357 493.361 566.829 493.361C559.575 493.361 552.147 495.765 544.544 500.571 546.71 492.639 549.729 487.649 553.601 485.601 556.581 484.066 565.332 483.299 579.856 483.299L598.112 483.299C609.532 483.299 619.322 482.153 627.482 479.861Z" stroke="#203864" stroke-linejoin="round" stroke-miterlimit="10" fill="#FFFFFF" fill-rule="evenodd"/><text fill="#000000" fill-opacity="0" font-family="Arial,Arial_MSFontService,sans-serif" font-size="114.75" x="469.357" y="580.268">SEFEA</text></g></svg>