<svg width="432" height="283" xmlns="http://www.w3.org/2000/svg" xmlns:xlink="http://www.w3.org/1999/xlink" overflow="hidden"><defs><filter id="fx0" x="-10%" y="-10%" width="120%" height="120%" filterUnits="userSpaceOnUse" primitiveUnits="userSpaceOnUse"><feComponentTransfer color-interpolation-filters="sRGB"><feFuncR type="discrete" tableValues="0.615686 0.615686"/><feFuncG type="discrete" tableValues="0.764706 0.764706"/><feFuncB type="discrete" tableValues="0.901961 0.901961"/><feFuncA type="linear" slope="1" intercept="0"/></feComponentTransfer><feGaussianBlur stdDeviation="0.485505 0.485505"/></filter><clipPath id="clip1"><rect x="2" y="1" width="402" height="119"/></clipPath></defs><g transform="translate(-437 -159)"><g clip-path="url(#clip1)" filter="url(#fx0)" transform="translate(457 239)"><g><path d="M371.471 21.8962C371.699 23.2184 369.423 26.7819 364.643 32.5866 356.193 42.9186 349.939 52.0479 345.883 59.9743L344.944 60.2292 355.2 60.4548C364.215 60.4548 370.554 60.2373 374.217 59.8024 372.303 46.3076 371.346 34.78 371.346 25.2194ZM54.249 4.64227C59.4704 4.64227 63.8022 5.49172 67.2446 7.19061 70.687 8.8895 72.4082 11.2142 72.4082 14.1647 72.4082 16.819 70.8239 20.0339 67.6553 23.8093 63.678 16.9479 57.9401 13.5173 50.4414 13.5173 45.7982 13.5173 41.9026 14.9395 38.7549 17.7839 35.6071 20.6283 34.0332 24.1406 34.0332 28.321 34.0332 31.1074 34.5392 33.2176 35.5512 34.6516 36.5633 36.0855 39.9616 39.4496 45.7461 44.7438L49.1338 49.4977C60.9 59.3539 66.7832 68.1651 66.7832 75.9313 66.7832 84.9704 63.2137 92.4528 56.0747 98.3786 48.9357 104.304 39.9928 107.267 29.2461 107.267 21.9811 107.267 15.9315 105.533 11.0971 102.064 6.26283 98.5946 3.84568 94.1501 3.84568 88.7302 3.84568 84.9177 7.44984 80.7409 14.6582 76.1999 14.6582 83.3724 16.3631 88.7289 19.7729 92.2692 23.1828 95.8096 27.9274 97.5798 34.0068 97.5798 39.4352 97.5798 44.1196 95.9743 48.06 92.7634 52.0005 89.5524 53.9707 85.8363 53.9707 81.6149 53.9707 77.0414 49.4668 70.5469 40.459 62.1315L33.7217 55.8825C24.846 47.6351 20.4082 39.9571 20.4082 32.8483 20.4082 24.6159 23.6051 17.8568 29.999 12.571 36.3929 7.28518 44.4762 4.64227 54.249 4.64227ZM388.685 4.26727C387.5 12.5082 386.908 19.765 386.908 26.0378 386.908 42.7611 388.835 59.6784 392.687 76.7897 394.741 85.9466 398.002 92.0749 402.471 95.1745 398.141 99.9447 394.42 102.33 391.309 102.33 384.141 102.33 378.81 91.2673 375.315 69.1423 369.362 69.8506 362.898 70.2048 355.924 70.2048L340.016 69.9099 338.57 72.239C333.921 81.2057 331.596 88.2246 331.596 93.2956 331.596 94.5821 332.187 96.2998 333.371 98.4489 332.07 99.0641 329.833 99.9567 326.66 101.127 324.424 101.929 322.501 102.33 320.891 102.33 317.194 102.33 315.346 100.546 315.346 96.9772 315.346 91.0664 318.944 82.1976 326.141 70.3708L327.867 69.1423 325.989 69.1423C319.52 69.1423 313.909 70.1709 309.158 72.2282 311.277 63.6709 316.592 59.3923 325.104 59.3923L332.854 59.572 334.128 57.6862C340.544 48.0436 350.371 35.0479 363.608 18.6989 368.147 13.0785 371.586 9.55341 373.927 8.12372 376.267 6.69403 381.186 5.40855 388.685 4.26727ZM246.408 3.70477C243.639 9.59995 240.778 13.3444 237.826 14.9382 234.874 16.5319 230.414 17.3288 224.446 17.3288L219.078 17.2673 201.419 17.2673 194.369 51.4548 206.276 51.4548C214.332 51.4548 221.542 50.4118 227.908 48.3259 225.747 54.4001 223.28 58.1276 220.507 59.5085 217.733 60.8893 212.5 61.5798 204.807 61.5798L192.659 61.5798 184.406 102.884C183.658 106.625 183.283 109.05 183.283 110.16 183.283 111.158 183.548 112.58 184.079 114.427 179.298 116.946 175.076 118.205 171.412 118.205 168.451 118.205 166.971 116.931 166.971 114.383 166.971 113.396 167.386 110.787 168.217 106.558L177.451 61.5996 175.008 61.7443C172.06 62.0732 168.604 62.8957 164.64 64.2116 166.787 58.5254 168.726 54.9777 170.456 53.5685 172.186 52.1594 174.874 51.4548 178.52 51.4548L179.149 51.4548 186.283 17.2673 186.185 17.2673C177.635 17.2673 170.126 19.7009 163.658 24.5681 165.351 16.7419 168.322 11.6566 172.572 9.31219 175.541 7.69891 184.36 6.89227 199.029 6.89227L215.141 6.89227C227.072 6.89227 237.495 5.82977 246.408 3.70477ZM319.971 3.45477C316.49 10.0557 313.389 13.9559 310.666 15.1555 307.944 16.355 302.303 16.9548 293.743 16.9548L275.042 16.9548 269.216 44.5798 280.561 44.5798C289.254 44.5798 296.744 43.4597 303.033 41.2194 300.033 47.8737 297.347 51.7849 294.974 52.9528 292.601 54.1208 287.307 54.7048 279.093 54.7048L267.507 54.7048 264.578 69.4587C263.298 75.8591 262.658 80.4118 262.658 83.1169 262.658 87.7171 267.482 90.0173 277.13 90.0173 287.401 90.0173 297.035 88.1582 306.033 84.4401 304.036 92.0508 300.694 96.6455 296.008 98.2243 293.344 99.1136 288.814 100.02 282.415 100.944 276.017 101.868 271.043 102.33 267.493 102.33 253.311 102.33 246.221 97.4795 246.221 87.779 246.221 85.32 246.882 80.6859 248.205 73.8766L252.295 54.7233 249.594 54.8733C246.464 55.2103 243.048 56.0529 239.346 57.4011 241.738 51.6426 243.759 48.0661 245.407 46.6716 247.056 45.277 249.606 44.5798 253.058 44.5798L254.057 44.5798 259.846 16.9548 259.317 16.9548C252.063 16.9548 244.635 19.3581 237.033 24.1647 239.199 16.2324 242.218 11.2422 246.09 9.19403 249.07 7.65952 257.821 6.89227 272.345 6.89227L290.601 6.89227C302.02 6.89227 311.811 5.74644 319.971 3.45477ZM161.971 3.45477C158.49 10.0557 155.389 13.9559 152.666 15.1555 149.944 16.355 144.303 16.9548 135.743 16.9548L117.042 16.9548 111.216 44.5798 122.562 44.5798C131.254 44.5798 138.744 43.4597 145.033 41.2194 142.033 47.8737 139.347 51.7849 136.974 52.9528 134.601 54.1208 129.307 54.7048 121.093 54.7048L109.507 54.7048 106.578 69.4587C105.298 75.8591 104.658 80.4118 104.658 83.1169 104.658 87.7171 109.482 90.0173 119.13 90.0173 129.401 90.0173 139.035 88.1582 148.033 84.4401 146.036 92.0508 142.694 96.6455 138.008 98.2243 135.344 99.1136 130.814 100.02 124.415 100.944 118.017 101.868 113.043 102.33 109.493 102.33 95.3115 102.33 88.2207 97.4795 88.2207 87.779 88.2207 85.32 88.8821 80.6859 90.205 73.8766L94.2949 54.7233 91.5935 54.8733C88.4638 55.2103 85.0478 56.0529 81.3457 57.4011 83.7383 51.6426 85.7588 48.0661 87.4072 46.6716 89.0556 45.277 91.6058 44.5798 95.0576 44.5798L96.0566 44.5798 101.846 16.9548 101.317 16.9548C94.0635 16.9548 86.6354 19.3581 79.0332 24.1647 81.1992 16.2324 84.2181 11.2422 88.0898 9.19403 91.0696 7.65952 99.8213 6.89227 114.345 6.89227L132.601 6.89227C144.02 6.89227 153.811 5.74644 161.971 3.45477Z" stroke="#203864" stroke-linejoin="round" stroke-miterlimit="10" fill-rule="evenodd"/></g></g><path d="M825.306 257.732C825.535 259.054 823.259 262.618 818.478 268.422 810.028 278.754 803.775 287.883 799.718 295.81L798.78 296.065 809.036 296.29C818.051 296.29 824.39 296.073 828.052 295.638 826.138 282.143 825.181 270.616 825.181 261.055ZM508.085 240.478C513.306 240.478 517.638 241.327 521.08 243.026 524.523 244.725 526.244 247.05 526.244 250 526.244 252.655 524.659 255.869 521.491 259.645 517.514 252.784 511.776 249.353 504.277 249.353 499.634 249.353 495.738 250.775 492.59 253.619 489.443 256.464 487.869 259.976 487.869 264.157 487.869 266.943 488.375 269.053 489.387 270.487 490.399 271.921 493.797 275.285 499.582 280.579L502.969 285.333C514.736 295.189 520.619 304.001 520.619 311.767 520.619 320.806 517.049 328.288 509.91 334.214 502.771 340.14 493.828 343.103 483.082 343.103 475.817 343.103 469.767 341.368 464.933 337.899 460.098 334.43 457.681 329.986 457.681 324.566 457.681 320.753 461.285 316.577 468.494 312.035 468.494 319.208 470.199 324.564 473.609 328.105 477.018 331.645 481.763 333.415 487.842 333.415 493.271 333.415 497.955 331.81 501.896 328.599 505.836 325.388 507.806 321.672 507.806 317.451 507.806 312.877 503.302 306.383 494.295 297.967L487.557 291.718C478.682 283.471 474.244 275.793 474.244 268.684 474.244 260.452 477.441 253.692 483.835 248.407 490.228 243.121 498.312 240.478 508.085 240.478ZM842.52 240.103C841.336 248.344 840.744 255.601 840.744 261.873 840.744 278.597 842.67 295.514 846.523 312.625 848.576 321.782 851.838 327.91 856.306 331.01 851.976 335.78 848.255 338.165 845.144 338.165 837.976 338.165 832.645 327.103 829.151 304.978 823.198 305.686 816.734 306.04 809.759 306.04L793.851 305.745 792.406 308.075C787.756 317.041 785.431 324.06 785.431 329.131 785.431 330.418 786.023 332.135 787.207 334.285 785.905 334.9 783.668 335.792 780.496 336.962 778.259 337.764 776.336 338.165 774.726 338.165 771.03 338.165 769.181 336.381 769.181 332.813 769.181 326.902 772.78 318.033 779.976 306.206L781.703 304.978 779.825 304.978C773.355 304.978 767.745 306.007 762.994 308.064 765.112 299.507 770.428 295.228 778.94 295.228L786.69 295.408 787.964 293.522C794.38 283.879 804.206 270.883 817.444 254.535 821.982 248.914 825.422 245.389 827.762 243.959 830.103 242.53 835.022 241.244 842.52 240.103ZM700.244 239.54C697.474 245.436 694.613 249.18 691.661 250.774 688.709 252.368 684.249 253.164 678.282 253.164L672.914 253.103 655.255 253.103 648.205 287.29 660.112 287.29C668.167 287.29 675.378 286.247 681.744 284.161 679.583 290.236 677.116 293.963 674.342 295.344 671.569 296.725 666.336 297.415 658.642 297.415L646.495 297.415 638.242 338.72C637.493 342.46 637.119 344.885 637.119 345.995 637.119 346.993 637.384 348.416 637.915 350.263 633.134 352.781 628.912 354.04 625.248 354.04 622.287 354.04 620.806 352.767 620.806 350.219 620.806 349.231 621.222 346.623 622.052 342.394L631.287 297.435 628.843 297.58C625.896 297.909 622.44 298.731 618.475 300.047 620.623 294.361 622.562 290.813 624.292 289.404 626.021 287.995 628.71 287.29 632.356 287.29L632.985 287.29 640.119 253.103 640.02 253.103C631.471 253.103 623.962 255.536 617.494 260.404 619.187 252.577 622.158 247.492 626.408 245.148 629.377 243.535 638.196 242.728 652.865 242.728L668.976 242.728C680.908 242.728 691.33 241.665 700.244 239.54ZM773.806 239.29C770.326 245.891 767.224 249.792 764.502 250.991 761.78 252.191 756.139 252.79 747.579 252.79L728.878 252.79 723.051 280.415 734.397 280.415C743.089 280.415 750.58 279.295 756.869 277.055 753.869 283.709 751.182 287.62 748.809 288.788 746.436 289.956 741.143 290.54 732.928 290.54L721.342 290.54 718.414 305.294C717.134 311.695 716.494 316.247 716.494 318.952 716.494 323.553 721.318 325.853 730.965 325.853 741.236 325.853 750.871 323.994 759.869 320.276 757.871 327.886 754.53 332.481 749.843 334.06 747.18 334.949 742.649 335.856 736.251 336.78 729.853 337.703 724.879 338.165 721.329 338.165 707.147 338.165 700.056 333.315 700.056 323.615 700.056 321.156 700.718 316.521 702.041 309.712L706.13 290.559 703.429 290.709C700.299 291.046 696.883 291.889 693.181 293.237 695.574 287.478 697.594 283.902 699.243 282.507 700.891 281.113 703.441 280.415 706.893 280.415L707.892 280.415 713.681 252.79 713.153 252.79C705.899 252.79 698.471 255.194 690.869 260 693.035 252.068 696.054 247.078 699.925 245.03 702.905 243.495 711.657 242.728 726.18 242.728L744.436 242.728C755.856 242.728 765.646 241.582 773.806 239.29ZM615.806 239.29C612.326 245.891 609.224 249.792 606.502 250.991 603.78 252.191 598.139 252.79 589.579 252.79L570.878 252.79 565.051 280.415 576.397 280.415C585.089 280.415 592.58 279.295 598.869 277.055 595.869 283.709 593.182 287.62 590.809 288.788 588.436 289.956 583.143 290.54 574.928 290.54L563.342 290.54 560.414 305.294C559.134 311.695 558.494 316.247 558.494 318.952 558.494 323.553 563.318 325.853 572.965 325.853 583.236 325.853 592.871 323.994 601.869 320.276 599.871 327.886 596.53 332.481 591.843 334.06 589.18 334.949 584.649 335.856 578.251 336.78 571.853 337.703 566.879 338.165 563.329 338.165 549.147 338.165 542.056 333.315 542.056 323.615 542.056 321.156 542.718 316.521 544.041 309.712L548.13 290.559 545.429 290.709C542.299 291.046 538.883 291.889 535.181 293.237 537.574 287.478 539.594 283.902 541.243 282.507 542.891 281.113 545.441 280.415 548.893 280.415L549.892 280.415 555.681 252.79 555.153 252.79C547.899 252.79 540.471 255.194 532.869 260 535.035 252.068 538.054 247.078 541.925 245.03 544.905 243.495 553.657 242.728 568.18 242.728L586.436 242.728C597.856 242.728 607.646 241.582 615.806 239.29Z" stroke="#203864" stroke-linejoin="round" stroke-miterlimit="10" fill-rule="evenodd"/><text fill="#000000" fill-opacity="0" font-family="Arial,Arial_MSFontService,sans-serif" font-size="114.75" x="457.681" y="339.697">SEFEA</text></g></svg>