<svg width="65.812" height="58" xmlns="http://www.w3.org/2000/svg" xmlns:xlink="http://www.w3.org/1999/xlink" overflow="hidden"><g stroke="#CCCCCC" stroke-width="0.0726944" stroke-linejoin="bevel" fill="#A29D86"><path d="M-186.329 59.726-183.144 60.886-183.144 64.628-186.329 63.469Z" color="#000000" fill="#E9E9FF" overflow="visible" transform="matrix(2.92733 0 0 2.92733 564.377 -156.012)"/><path d="M-189.56 60.903-189.56 64.646-186.329 63.469-186.329 59.726Z" color="#000000" fill="#353564" overflow="visible" transform="matrix(2.92733 0 0 2.92733 564.377 -156.012)"/><path d="M-189.56 64.646-186.376 65.805-183.144 64.628-186.329 63.469Z" color="#000000" fill="#AFAFDE" overflow="visible" transform="matrix(2.92733 0 0 2.92733 564.377 -156.012)"/><path d="M-189.56 60.903-186.376 62.062-183.144 60.885-186.329 59.726Z" fill="#F7F7F4" transform="matrix(2.92733 0 0 2.92733 564.377 -156.012)"/><path d="M-186.376 62.062-186.376 65.805-183.144 64.628-183.144 60.885Z" fill="#FFFFFF" transform="matrix(2.92733 0 0 2.92733 564.377 -156.012)"/><path d="M-189.56 60.903-186.376 62.062-186.376 65.805-189.561 64.645Z" fill="#EFEEEA" transform="matrix(2.92733 0 0 2.92733 564.377 -156.012)"/></g><g stroke="#CCCCCC" stroke-width="0.0726944" stroke-linejoin="bevel" fill="#A29D86"><path d="M-186.329 59.726-183.144 60.886-183.144 64.628-186.329 63.469Z" color="#000000" fill="#E9E9FF" overflow="visible" transform="matrix(2.92733 0 0 2.92733 573.74 -163.673)"/><path d="M-189.56 60.903-189.56 64.646-186.329 63.469-186.329 59.726Z" color="#000000" fill="#353564" overflow="visible" transform="matrix(2.92733 0 0 2.92733 573.74 -163.673)"/><path d="M-189.56 64.646-186.376 65.805-183.144 64.628-186.329 63.469Z" color="#000000" fill="#AFAFDE" overflow="visible" transform="matrix(2.92733 0 0 2.92733 573.74 -163.673)"/><path d="M-189.56 60.903-186.376 62.062-183.144 60.885-186.329 59.726Z" fill="#F7F7F4" transform="matrix(2.92733 0 0 2.92733 573.74 -163.673)"/><path d="M-186.376 62.062-186.376 65.805-183.144 64.628-183.144 60.885Z" fill="#FFFFFF" transform="matrix(2.92733 0 0 2.92733 573.74 -163.673)"/><path d="M-189.56 60.903-186.376 62.062-186.376 65.805-189.561 64.645Z" fill="#EFEEEA" transform="matrix(2.92733 0 0 2.92733 573.74 -163.673)"/></g><g stroke="#CCCCCC" stroke-width="0.0726944" stroke-linejoin="bevel" fill="#A29D86"><path d="M-186.329 59.726-183.144 60.886-183.144 64.628-186.329 63.469Z" color="#000000" fill="#E9E9FF" overflow="visible" transform="matrix(2.92733 0 0 2.92733 555.014 -141.542)"/><path d="M-189.56 60.903-189.56 64.646-186.329 63.469-186.329 59.726Z" color="#000000" fill="#353564" overflow="visible" transform="matrix(2.92733 0 0 2.92733 555.014 -141.542)"/><path d="M-189.56 64.646-186.376 65.805-183.144 64.628-186.329 63.469Z" color="#000000" fill="#AFAFDE" overflow="visible" transform="matrix(2.92733 0 0 2.92733 555.014 -141.542)"/><path d="M-189.56 60.903-186.376 62.062-183.144 60.885-186.329 59.726Z" fill="#F7F7F4" transform="matrix(2.92733 0 0 2.92733 555.014 -141.542)"/><path d="M-186.376 62.062-186.376 65.805-183.144 64.628-183.144 60.885Z" fill="#FFFFFF" transform="matrix(2.92733 0 0 2.92733 555.014 -141.542)"/><path d="M-189.56 60.903-186.376 62.062-186.376 65.805-189.561 64.645Z" fill="#EFEEEA" transform="matrix(2.92733 0 0 2.92733 555.014 -141.542)"/></g><g stroke="#CCCCCC" stroke-width="0.0726944" stroke-linejoin="bevel" fill="#A29D86"><path d="M-186.329 59.726-183.144 60.886-183.144 64.628-186.329 63.469Z" color="#000000" fill="#E9E9FF" overflow="visible" transform="matrix(2.92733 0 0 2.92733 564.377 -138.137)"/><path d="M-189.56 60.903-189.56 64.646-186.329 63.469-186.329 59.726Z" color="#000000" fill="#353564" overflow="visible" transform="matrix(2.92733 0 0 2.92733 564.377 -138.137)"/><path d="M-189.56 64.646-186.376 65.805-183.144 64.628-186.329 63.469Z" color="#000000" fill="#AFAFDE" overflow="visible" transform="matrix(2.92733 0 0 2.92733 564.377 -138.137)"/><path d="M-189.56 60.903-186.376 62.062-183.144 60.885-186.329 59.726Z" fill="#F7F7F4" transform="matrix(2.92733 0 0 2.92733 564.377 -138.137)"/><path d="M-186.376 62.062-186.376 65.805-183.144 64.628-183.144 60.885Z" fill="#FFFFFF" transform="matrix(2.92733 0 0 2.92733 564.377 -138.137)"/><path d="M-189.56 60.903-186.376 62.062-186.376 65.805-189.561 64.645Z" fill="#EFEEEA" transform="matrix(2.92733 0 0 2.92733 564.377 -138.137)"/></g><g stroke="#CCCCCC" stroke-width="0.0726944" stroke-linejoin="bevel" fill="#A29D86"><path d="M-186.329 59.726-183.144 60.886-183.144 64.628-186.329 63.469Z" color="#000000" fill="#E9E9FF" overflow="visible" transform="matrix(2.92733 0 0 2.92733 564.377 -149.203)"/><path d="M-189.56 60.903-189.56 64.646-186.329 63.469-186.329 59.726Z" color="#000000" fill="#353564" overflow="visible" transform="matrix(2.92733 0 0 2.92733 564.377 -149.203)"/><path d="M-189.56 64.646-186.376 65.805-183.144 64.628-186.329 63.469Z" color="#000000" fill="#AFAFDE" overflow="visible" transform="matrix(2.92733 0 0 2.92733 564.377 -149.203)"/><path d="M-189.56 60.903-186.376 62.062-183.144 60.885-186.329 59.726Z" fill="#F7F7F4" transform="matrix(2.92733 0 0 2.92733 564.377 -149.203)"/><path d="M-186.376 62.062-186.376 65.805-183.144 64.628-183.144 60.885Z" fill="#FFFFFF" transform="matrix(2.92733 0 0 2.92733 564.377 -149.203)"/><path d="M-189.56 60.903-186.376 62.062-186.376 65.805-189.561 64.645Z" fill="#EFEEEA" transform="matrix(2.92733 0 0 2.92733 564.377 -149.203)"/></g><g stroke="#CCCCCC" stroke-width="0.0726944" stroke-linejoin="bevel" fill="#A29D86"><path d="M-186.329 59.726-183.144 60.886-183.144 64.628-186.329 63.469Z" color="#000000" fill="#E9E9FF" overflow="visible" transform="matrix(2.92733 0 0 2.92733 601.83 -144.947)"/><path d="M-189.56 60.903-189.56 64.646-186.329 63.469-186.329 59.726Z" color="#000000" fill="#353564" overflow="visible" transform="matrix(2.92733 0 0 2.92733 601.83 -144.947)"/><path d="M-189.56 64.646-186.376 65.805-183.144 64.628-186.329 63.469Z" color="#000000" fill="#AFAFDE" overflow="visible" transform="matrix(2.92733 0 0 2.92733 601.83 -144.947)"/><path d="M-189.56 60.903-186.376 62.062-183.144 60.885-186.329 59.726Z" fill="#F7F7F4" transform="matrix(2.92733 0 0 2.92733 601.83 -144.947)"/><path d="M-186.376 62.062-186.376 65.805-183.144 64.628-183.144 60.885Z" fill="#FFFFFF" transform="matrix(2.92733 0 0 2.92733 601.83 -144.947)"/><path d="M-189.56 60.903-186.376 62.062-186.376 65.805-189.561 64.645Z" fill="#EFEEEA" transform="matrix(2.92733 0 0 2.92733 601.83 -144.947)"/></g><g transform="matrix(0.65177 0 0 0.65177 -1683.66 -513.275)"><g stroke="#CCCCCC" stroke-width="0.0726944" stroke-linejoin="bevel" fill="#A29D86"><path d="M-186.329 59.726-183.144 60.886-183.144 64.628-186.329 63.469Z" color="#000000" fill="#E9E9FF" overflow="visible" transform="matrix(4.49135 0 0 4.49135 3492.22 570.342)"/><path d="M-189.56 60.903-189.56 64.646-186.329 63.469-186.329 59.726Z" color="#000000" fill="#353564" overflow="visible" transform="matrix(4.49135 0 0 4.49135 3492.22 570.342)"/><path d="M-189.56 64.646-186.376 65.805-183.144 64.628-186.329 63.469Z" color="#000000" fill="#AFAFDE" overflow="visible" transform="matrix(4.49135 0 0 4.49135 3492.22 570.342)"/><path d="M-189.56 60.903-186.376 62.062-183.144 60.885-186.329 59.726Z" fill="#F7F7F4" transform="matrix(4.49135 0 0 4.49135 3492.22 570.342)"/><path d="M-186.376 62.062-186.376 65.805-183.144 64.628-183.144 60.885Z" fill="#FFD242" transform="matrix(4.49135 0 0 4.49135 3492.22 570.342)"/><path d="M-189.56 60.903-186.376 62.062-186.376 65.805-189.561 64.645Z" fill="#EFEEEA" transform="matrix(4.49135 0 0 4.49135 3492.22 570.342)"/></g><circle cx="2835.22" cy="1823.9" r="2.967" fill="#FFFFFF" transform="matrix(0.9397 -0.342023 0 1 0 0)"/></g><g stroke="#CCCCCC" stroke-width="0.0726944" stroke-linejoin="bevel" fill="#A29D86"><path d="M-186.329 59.726-183.144 60.886-183.144 64.628-186.329 63.469Z" color="#000000" fill="#E9E9FF" overflow="visible" transform="matrix(2.92733 0 0 2.92733 583.104 -138.137)"/><path d="M-189.56 60.903-189.56 64.646-186.329 63.469-186.329 59.726Z" color="#000000" fill="#353564" overflow="visible" transform="matrix(2.92733 0 0 2.92733 583.104 -138.137)"/><path d="M-189.56 64.646-186.376 65.805-183.144 64.628-186.329 63.469Z" color="#000000" fill="#AFAFDE" overflow="visible" transform="matrix(2.92733 0 0 2.92733 583.104 -138.137)"/><path d="M-189.56 60.903-186.376 62.062-183.144 60.885-186.329 59.726Z" fill="#F7F7F4" transform="matrix(2.92733 0 0 2.92733 583.104 -138.137)"/><path d="M-186.376 62.062-186.376 65.805-183.144 64.628-183.144 60.885Z" fill="#FFD242" transform="matrix(2.92733 0 0 2.92733 583.104 -138.137)"/><path d="M-189.56 60.903-186.376 62.062-186.376 65.805-189.561 64.645Z" fill="#EFEEEA" transform="matrix(2.92733 0 0 2.92733 583.104 -138.137)"/></g><g stroke="#CCCCCC" stroke-width="0.0726944" stroke-linejoin="bevel" fill="#A29D86"><path d="M-186.329 59.726-183.144 60.886-183.144 64.628-186.329 63.469Z" color="#000000" fill="#E9E9FF" overflow="visible" transform="matrix(2.92733 0 0 2.92733 573.74 -134.732)"/><path d="M-189.56 60.903-189.56 64.646-186.329 63.469-186.329 59.726Z" color="#000000" fill="#353564" overflow="visible" transform="matrix(2.92733 0 0 2.92733 573.74 -134.732)"/><path d="M-189.56 64.646-186.376 65.805-183.144 64.628-186.329 63.469Z" color="#000000" fill="#AFAFDE" overflow="visible" transform="matrix(2.92733 0 0 2.92733 573.74 -134.732)"/><path d="M-189.56 60.903-186.376 62.062-183.144 60.885-186.329 59.726Z" fill="#F7F7F4" transform="matrix(2.92733 0 0 2.92733 573.74 -134.732)"/><path d="M-186.376 62.062-186.376 65.805-183.144 64.628-183.144 60.885Z" fill="#FFFFFF" transform="matrix(2.92733 0 0 2.92733 573.74 -134.732)"/><path d="M-189.56 60.903-186.376 62.062-186.376 65.805-189.561 64.645Z" fill="#EFEEEA" transform="matrix(2.92733 0 0 2.92733 573.74 -134.732)"/></g><g stroke="#CCCCCC" stroke-width="0.0726944" stroke-linejoin="bevel" fill="#A29D86"><path d="M-186.329 59.726-183.144 60.886-183.144 64.628-186.329 63.469Z" color="#000000" fill="#E9E9FF" overflow="visible" transform="matrix(2.92733 0 0 2.92733 601.83 -156.012)"/><path d="M-189.56 60.903-189.56 64.646-186.329 63.469-186.329 59.726Z" color="#000000" fill="#353564" overflow="visible" transform="matrix(2.92733 0 0 2.92733 601.83 -156.012)"/><path d="M-189.56 64.646-186.376 65.805-183.144 64.628-186.329 63.469Z" color="#000000" fill="#AFAFDE" overflow="visible" transform="matrix(2.92733 0 0 2.92733 601.83 -156.012)"/><path d="M-189.56 60.903-186.376 62.062-183.144 60.885-186.329 59.726Z" fill="#F7F7F4" transform="matrix(2.92733 0 0 2.92733 601.83 -156.012)"/><path d="M-186.376 62.062-186.376 65.805-183.144 64.628-183.144 60.885Z" fill="#FFD242" transform="matrix(2.92733 0 0 2.92733 601.83 -156.012)"/><path d="M-189.56 60.903-186.376 62.062-186.376 65.805-189.561 64.645Z" fill="#EFEEEA" transform="matrix(2.92733 0 0 2.92733 601.83 -156.012)"/></g><g stroke="#CCCCCC" stroke-width="0.0726944" stroke-linejoin="bevel" fill="#A29D86"><path d="M-186.329 59.726-183.144 60.886-183.144 64.628-186.329 63.469Z" color="#000000" fill="#E9E9FF" overflow="visible" transform="matrix(2.92733 0 0 2.92733 601.83 -167.078)"/><path d="M-189.56 60.903-189.56 64.646-186.329 63.469-186.329 59.726Z" color="#000000" fill="#353564" overflow="visible" transform="matrix(2.92733 0 0 2.92733 601.83 -167.078)"/><path d="M-189.56 64.646-186.376 65.805-183.144 64.628-186.329 63.469Z" color="#000000" fill="#AFAFDE" overflow="visible" transform="matrix(2.92733 0 0 2.92733 601.83 -167.078)"/><path d="M-189.56 60.903-186.376 62.062-183.144 60.885-186.329 59.726Z" fill="#FFC91D" transform="matrix(2.92733 0 0 2.92733 601.83 -167.078)"/><path d="M-186.376 62.062-186.376 65.805-183.144 64.628-183.144 60.885Z" fill="#FFD242" transform="matrix(2.92733 0 0 2.92733 601.83 -167.078)"/><path d="M-189.56 60.903-186.376 62.062-186.376 65.805-189.561 64.645Z" fill="#EFEEEA" transform="matrix(2.92733 0 0 2.92733 601.83 -167.078)"/></g><g stroke="#CCCCCC" stroke-width="0.0726944" stroke-linejoin="bevel" fill="#A29D86"><path d="M-186.329 59.726-183.144 60.886-183.144 64.628-186.329 63.469Z" color="#000000" fill="#E9E9FF" overflow="visible" transform="matrix(2.92733 0 0 2.92733 592.467 -152.608)"/><path d="M-189.56 60.903-189.56 64.646-186.329 63.469-186.329 59.726Z" color="#000000" fill="#353564" overflow="visible" transform="matrix(2.92733 0 0 2.92733 592.467 -152.608)"/><path d="M-189.56 64.646-186.376 65.805-183.144 64.628-186.329 63.469Z" color="#000000" fill="#AFAFDE" overflow="visible" transform="matrix(2.92733 0 0 2.92733 592.467 -152.608)"/><path d="M-189.56 60.903-186.376 62.062-183.144 60.885-186.329 59.726Z" fill="#F7F7F4" transform="matrix(2.92733 0 0 2.92733 592.467 -152.608)"/><path d="M-186.376 62.062-186.376 65.805-183.144 64.628-183.144 60.885Z" fill="#FFD242" transform="matrix(2.92733 0 0 2.92733 592.467 -152.608)"/><path d="M-189.56 60.903-186.376 62.062-186.376 65.805-189.561 64.645Z" fill="#EFEEEA" transform="matrix(2.92733 0 0 2.92733 592.467 -152.608)"/></g><g stroke="#CCCCCC" stroke-width="0.0726944" stroke-linejoin="bevel" fill="#A29D86"><path d="M-186.329 59.726-183.144 60.886-183.144 64.628-186.329 63.469Z" color="#000000" fill="#E9E9FF" overflow="visible" transform="matrix(2.92733 0 0 2.92733 592.467 -163.673)"/><path d="M-189.56 60.903-189.56 64.646-186.329 63.469-186.329 59.726Z" color="#000000" fill="#353564" overflow="visible" transform="matrix(2.92733 0 0 2.92733 592.467 -163.673)"/><path d="M-189.56 64.646-186.376 65.805-183.144 64.628-186.329 63.469Z" color="#000000" fill="#AFAFDE" overflow="visible" transform="matrix(2.92733 0 0 2.92733 592.467 -163.673)"/><path d="M-189.56 60.903-186.376 62.062-183.144 60.885-186.329 59.726Z" fill="#F7F7F4" transform="matrix(2.92733 0 0 2.92733 592.467 -163.673)"/><path d="M-186.376 62.062-186.376 65.805-183.144 64.628-183.144 60.885Z" fill="#3775A9" transform="matrix(2.92733 0 0 2.92733 592.467 -163.673)"/><path d="M-189.56 60.903-186.376 62.062-186.376 65.805-189.561 64.645Z" fill="#EFEEEA" transform="matrix(2.92733 0 0 2.92733 592.467 -163.673)"/></g><g stroke="#CCCCCC" stroke-width="0.0726944" stroke-linejoin="bevel" fill="#A29D86"><path d="M-186.329 59.726-183.144 60.886-183.144 64.628-186.329 63.469Z" color="#000000" fill="#E9E9FF" overflow="visible" transform="matrix(2.92733 0 0 2.92733 592.467 -174.739)"/><path d="M-189.56 60.903-189.56 64.646-186.329 63.469-186.329 59.726Z" color="#000000" fill="#353564" overflow="visible" transform="matrix(2.92733 0 0 2.92733 592.467 -174.739)"/><path d="M-189.56 64.646-186.376 65.805-183.144 64.628-186.329 63.469Z" color="#000000" fill="#AFAFDE" overflow="visible" transform="matrix(2.92733 0 0 2.92733 592.467 -174.739)"/><path d="M-189.56 60.903-186.376 62.062-183.144 60.885-186.329 59.726Z" fill="#2F6491" transform="matrix(2.92733 0 0 2.92733 592.467 -174.739)"/><path d="M-186.376 62.062-186.376 65.805-183.144 64.628-183.144 60.885Z" fill="#3775A9" transform="matrix(2.92733 0 0 2.92733 592.467 -174.739)"/><path d="M-189.56 60.903-186.376 62.062-186.376 65.805-189.561 64.645Z" fill="#EFEEEA" transform="matrix(2.92733 0 0 2.92733 592.467 -174.739)"/></g><g stroke="#CCCCCC" stroke-width="0.0726944" stroke-linejoin="bevel" fill="#A29D86"><path d="M-186.329 59.726-183.144 60.886-183.144 64.628-186.329 63.469Z" color="#000000" fill="#E9E9FF" overflow="visible" transform="matrix(2.92733 0 0 2.92733 583.104 -149.203)"/><path d="M-189.56 60.903-189.56 64.646-186.329 63.469-186.329 59.726Z" color="#000000" fill="#353564" overflow="visible" transform="matrix(2.92733 0 0 2.92733 583.104 -149.203)"/><path d="M-189.56 64.646-186.376 65.805-183.144 64.628-186.329 63.469Z" color="#000000" fill="#AFAFDE" overflow="visible" transform="matrix(2.92733 0 0 2.92733 583.104 -149.203)"/><path d="M-189.56 60.903-186.376 62.062-183.144 60.885-186.329 59.726Z" fill="#F7F7F4" transform="matrix(2.92733 0 0 2.92733 583.104 -149.203)"/><path d="M-186.376 62.062-186.376 65.805-183.144 64.628-183.144 60.885Z" fill="#FFD242" transform="matrix(2.92733 0 0 2.92733 583.104 -149.203)"/><path d="M-189.56 60.903-186.376 62.062-186.376 65.805-189.561 64.645Z" fill="#EFEEEA" transform="matrix(2.92733 0 0 2.92733 583.104 -149.203)"/></g><g stroke="#CCCCCC" stroke-width="0.0726944" stroke-linejoin="bevel" fill="#A29D86"><path d="M-186.329 59.726-183.144 60.886-183.144 64.628-186.329 63.469Z" color="#000000" fill="#E9E9FF" overflow="visible" transform="matrix(2.92733 0 0 2.92733 583.104 -160.268)"/><path d="M-189.56 60.903-189.56 64.646-186.329 63.469-186.329 59.726Z" color="#000000" fill="#353564" overflow="visible" transform="matrix(2.92733 0 0 2.92733 583.104 -160.268)"/><path d="M-189.56 64.646-186.376 65.805-183.144 64.628-186.329 63.469Z" color="#000000" fill="#AFAFDE" overflow="visible" transform="matrix(2.92733 0 0 2.92733 583.104 -160.268)"/><path d="M-189.56 60.903-186.376 62.062-183.144 60.885-186.329 59.726Z" fill="#F7F7F4" transform="matrix(2.92733 0 0 2.92733 583.104 -160.268)"/><path d="M-186.376 62.062-186.376 65.805-183.144 64.628-183.144 60.885Z" fill="#3775A9" transform="matrix(2.92733 0 0 2.92733 583.104 -160.268)"/><path d="M-189.56 60.903-186.376 62.062-186.376 65.805-189.561 64.645Z" fill="#EFEEEA" transform="matrix(2.92733 0 0 2.92733 583.104 -160.268)"/></g><g stroke="#CCCCCC" stroke-width="0.0726944" stroke-linejoin="bevel" fill="#A29D86"><path d="M-186.329 59.726-183.144 60.886-183.144 64.628-186.329 63.469Z" color="#000000" fill="#E9E9FF" overflow="visible" transform="matrix(2.92733 0 0 2.92733 573.74 -145.798)"/><path d="M-189.56 60.903-189.56 64.646-186.329 63.469-186.329 59.726Z" color="#000000" fill="#353564" overflow="visible" transform="matrix(2.92733 0 0 2.92733 573.74 -145.798)"/><path d="M-189.56 64.646-186.376 65.805-183.144 64.628-186.329 63.469Z" color="#000000" fill="#AFAFDE" overflow="visible" transform="matrix(2.92733 0 0 2.92733 573.74 -145.798)"/><path d="M-189.56 60.903-186.376 62.062-183.144 60.885-186.329 59.726Z" fill="#F7F7F4" transform="matrix(2.92733 0 0 2.92733 573.74 -145.798)"/><path d="M-186.376 62.062-186.376 65.805-183.144 64.628-183.144 60.885Z" fill="#3775A9" transform="matrix(2.92733 0 0 2.92733 573.74 -145.798)"/><path d="M-189.56 60.903-186.376 62.062-186.376 65.805-189.561 64.645Z" fill="#2F6491" transform="matrix(2.92733 0 0 2.92733 573.74 -145.798)"/></g><g stroke="#CCCCCC" stroke-width="0.0726944" stroke-linejoin="bevel" fill="#A29D86"><path d="M-186.329 59.726-183.144 60.886-183.144 64.628-186.329 63.469Z" color="#000000" fill="#E9E9FF" overflow="visible" transform="matrix(2.92733 0 0 2.92733 573.74 -156.864)"/><path d="M-189.56 60.903-189.56 64.646-186.329 63.469-186.329 59.726Z" color="#000000" fill="#353564" overflow="visible" transform="matrix(2.92733 0 0 2.92733 573.74 -156.864)"/><path d="M-189.56 64.646-186.376 65.805-183.144 64.628-186.329 63.469Z" color="#000000" fill="#AFAFDE" overflow="visible" transform="matrix(2.92733 0 0 2.92733 573.74 -156.864)"/><path d="M-189.56 60.903-186.376 62.062-183.144 60.885-186.329 59.726Z" fill="#2F6491" transform="matrix(2.92733 0 0 2.92733 573.74 -156.864)"/><path d="M-186.376 62.062-186.376 65.805-183.144 64.628-183.144 60.885Z" fill="#3775A9" transform="matrix(2.92733 0 0 2.92733 573.74 -156.864)"/><path d="M-189.56 60.903-186.376 62.062-186.376 65.805-189.561 64.645Z" fill="#2F6491" transform="matrix(2.92733 0 0 2.92733 573.74 -156.864)"/></g><g transform="matrix(0.65177 0 0 0.65177 -1683.66 -513.275)"><g stroke="#CCCCCC" stroke-width="0.0726944" stroke-linejoin="bevel" fill="#A29D86"><path d="M-186.329 59.726-183.144 60.886-183.144 64.628-186.329 63.469Z" color="#000000" fill="#E9E9FF" overflow="visible" transform="matrix(4.49135 0 0 4.49135 3477.85 524.633)"/><path d="M-189.56 60.903-189.56 64.646-186.329 63.469-186.329 59.726Z" color="#000000" fill="#353564" overflow="visible" transform="matrix(4.49135 0 0 4.49135 3477.85 524.633)"/><path d="M-189.56 64.646-186.376 65.805-183.144 64.628-186.329 63.469Z" color="#000000" fill="#AFAFDE" overflow="visible" transform="matrix(4.49135 0 0 4.49135 3477.85 524.633)"/><path d="M-189.56 60.903-186.376 62.062-183.144 60.885-186.329 59.726Z" fill="#2F6491" transform="matrix(4.49135 0 0 4.49135 3477.85 524.633)"/><path d="M-186.376 62.062-186.376 65.805-183.144 64.628-183.144 60.885Z" fill="#3775A9" transform="matrix(4.49135 0 0 4.49135 3477.85 524.633)"/><path d="M-189.56 60.903-186.376 62.062-186.376 65.805-189.561 64.645Z" fill="#2F6491" transform="matrix(4.49135 0 0 4.49135 3477.85 524.633)"/></g><circle cx="2816.02" cy="1772.92" r="2.967" fill="#FFFFFF" transform="matrix(0.9397 -0.342023 0 1 0 0)"/></g></svg>